# xmcd
# Track frame offsets:
# 150
# 17165
# 29455
# 44426
# 58315
# 70828
# 82246
# 97143
# 108504
# 123102
# 137926
# 148198
# 166046
# 180202
#
# Disc length: 2640 seconds
# Revision: 0
# Processed by: cddbd v1.5.2PL0 Copyright (c) Steve Scherf et al.
# Submitted via: VisiTrax 2.11.1.266 - For more info visit www.synapsa.com
#
DISCID=c90a4e0e
DTITLE=Dale Watson - Carryin´ On
DYEAR=2010
DGENRE=
TTITLE0=Carryin´On This Way
TTITLE1=Hey Brown Bottle
TTITLE2=Flower In Your Hair
TTITLE3=Tequila,Whisky and Beer oh My
TTITLE4=You´re Always On My Mind
TTITLE5=Ain´t That Livin´
TTITLE6=Heart of Stones
TTITLE7=I´ll Show you
TTITLE8=How To Break Your Own Heart
TTITLE9=Foe A little While
TTITLE10=Whatever
TTITLE11=Your Love I´m Gonna Miss
TTITLE12=Don´t Wanna Go Home Song
TTITLE13=Hello,I´m An Old Country Song
EXTD=
EXTT0=
EXTT1=
EXTT2=
EXTT3=
EXTT4=
EXTT5=
EXTT6=
EXTT7=
EXTT8=
EXTT9=
EXTT10=
EXTT11=
EXTT12=
EXTT13=
PLAYORDER=
